<?xml version="1.0" standalone="no"?>
<!DOCTYPE svg PUBLIC "-//W3C//DTD SVG 20010904//EN"
 "http://www.w3.org/TR/2001/REC-SVG-20010904/DTD/svg10.dtd">
<svg version="1.0" xmlns="http://www.w3.org/2000/svg"
 width="235.000000pt" height="235.000000pt" viewBox="0 0 235.000000 235.000000"
 preserveAspectRatio="xMidYMid meet">
<metadata>
Created by potrace 1.11, written by Peter Selinger 2001-2013
</metadata>
<g transform="translate(0.000000,235.000000) scale(0.100000,-0.100000)"
fill="#000000" stroke="none">
<path d="M1015 2223 c-466 -96 -760 -566 -644 -1028 30 -118 101 -254 187
-354 l30 -35 80 75 c139 128 255 184 387 183 84 0 133 -22 189 -85 63 -69 80
-119 83 -235 1 -56 -2 -116 -7 -133 -5 -17 -5 -33 0 -36 4 -3 47 6 94 20 617
179 814 946 361 1401 -193 194 -490 283 -760 227z"/>
<path d="M323 351 c-18 -48 -35 -96 -39 -105 -4 -11 0 -16 14 -16 13 0 24 10
29 27 8 23 15 27 51 28 36 1 42 -2 53 -27 7 -17 19 -28 30 -28 11 0 19 1 19 3
0 1 -18 47 -39 102 -33 85 -42 100 -62 103 -22 2 -27 -6 -56 -87z m70 17 c2
-13 8 -31 12 -40 6 -15 2 -18 -24 -18 -35 0 -35 -1 -20 51 13 41 24 43 32 7z"/>
<path d="M1501 335 c0 -63 3 -105 9 -105 10 0 14 25 10 68 -1 20 3 22 53 22
61 0 87 19 87 63 0 42 -24 57 -94 57 l-63 0 -2 -105z m128 81 c17 -11 14 -63
-5 -70 -9 -3 -35 -6 -59 -6 l-42 0 -1 43 -1 43 48 -2 c27 0 53 -4 60 -8z"/>
<path d="M1860 335 c0 -63 4 -105 10 -105 6 0 10 42 10 105 0 63 -4 105 -10
105 -6 0 -10 -42 -10 -105z"/>
<path d="M1914 335 c0 -58 3 -105 8 -105 7 0 10 27 10 115 0 76 -2 95 -10 95
-5 0 -9 -47 -8 -105z"/>
<path d="M551 381 c-7 -5 -22 -6 -32 -4 -17 5 -19 -1 -19 -71 0 -61 3 -76 15
-76 11 0 15 13 15 53 0 55 12 77 42 77 18 0 19 -2 22 -85 1 -29 6 -41 18 -43
14 -3 17 7 20 60 3 60 4 63 28 63 24 0 25 -3 28 -62 2 -53 6 -63 21 -63 27 0
22 127 -5 147 -20 15 -64 9 -75 -9 -5 -7 -8 -7 -10 0 -6 15 -51 24 -68 13z"/>
<path d="M779 371 c-18 -15 -21 -23 -13 -31 8 -8 15 -7 28 5 19 19 61 16 61
-5 0 -8 -15 -17 -39 -22 -22 -5 -45 -13 -53 -19 -38 -32 16 -91 66 -72 18 7
32 6 44 -1 12 -8 20 -7 29 3 10 11 10 14 1 18 -8 3 -13 24 -13 58 0 44 -4 57
-22 69 -30 21 -61 20 -89 -3z m81 -84 c0 -19 -21 -37 -42 -37 -24 0 -35 29
-17 41 21 13 59 11 59 -4z"/>
<path d="M1114 378 c-22 -10 -44 -47 -44 -73 0 -74 104 -111 145 -52 51 72
-23 163 -101 125z m74 -50 c27 -57 -36 -108 -71 -57 -15 21 -12 54 6 77 16 20
51 10 65 -20z"/>
<path d="M1311 381 c-7 -5 -22 -6 -32 -4 -17 5 -19 -1 -19 -71 0 -60 3 -76 15
-76 10 0 15 15 17 56 3 60 20 83 52 71 12 -5 16 -20 16 -67 0 -53 2 -61 18
-58 14 3 17 14 16 66 -1 35 -5 67 -10 72 -15 14 -58 21 -73 11z"/>
<path d="M1710 370 c-11 -11 -20 -23 -21 -27 0 -5 -2 -17 -5 -28 -9 -45 34
-95 82 -95 29 0 64 47 64 85 0 69 -75 110 -120 65z m82 -17 c22 -20 24 -76 2
-97 -40 -40 -104 4 -89 61 13 54 50 70 87 36z"/>
<path d="M920 370 c0 -11 9 -13 53 -12 31 1 30 -3 -20 -64 -18 -23 -33 -46
-33 -53 0 -7 24 -11 73 -11 63 1 70 2 54 14 -10 8 -32 13 -48 11 -16 -2 -29 0
-29 4 0 5 18 29 40 54 22 25 40 50 40 56 0 7 -25 11 -65 11 -37 0 -65 -4 -65
-10z"/>
<path d="M1960 373 c0 -13 35 -101 43 -109 4 -4 7 -21 7 -37 0 -20 -6 -30 -20
-34 -22 -6 -28 -23 -7 -23 18 0 32 12 41 35 47 122 64 175 56 175 -5 0 -19
-27 -31 -60 -12 -33 -25 -58 -28 -55 -4 2 -16 29 -26 59 -11 31 -23 56 -27 56
-4 0 -8 -3 -8 -7z"/>
</g>
</svg>
